HIERARCHY
ROOT Hips
{
    OFFSET 0.000000 0.000000 0.000000
    CHANNELS 6 Xposition Yposition Zposition Zrotation Xrotation Yrotation
    JOINT Spine
    {
        OFFSET -0.000000 7.236184 0.000000
        CHANNELS 3 Zrotation Xrotation Yrotation
        JOINT Spine1
        {
            OFFSET -0.000000 20.420147 0.000000
            CHANNELS 3 Zrotation Xrotation Yrotation
            JOINT Neck
            {
                OFFSET -0.000000 20.336288 1.848754
                CHANNELS 3 Zrotation Xrotation Yrotation
                JOINT Head
                {
                    OFFSET -0.000000 12.354461 -1.764923
                    CHANNELS 3 Zrotation Xrotation Yrotation
                    End Site
                    {
                        OFFSET -0.000000 22.061537 0.000000
                    }
                }
            }
            JOINT LeftShoulder
            {
                OFFSET 3.573296 18.396038 -0.314103
                CHANNELS 3 Zrotation Xrotation Yrotation
                JOINT LeftArm
                {
                    OFFSET 10.880760 0.000000 0.000000
                    CHANNELS 3 Zrotation Xrotation Yrotation
                    JOINT LeftForeArm
                    {
                        OFFSET 27.185530 0.000000 0.000000
                        CHANNELS 3 Zrotation Xrotation Yrotation
                        JOINT LeftHand
                        {
                            OFFSET 27.825975 0.000000 0.000000
                            CHANNELS 3 Zrotation Xrotation Yrotation
                            End Site
                            {
                                OFFSET 13.236923 0.000000 0.000000
                            }
                        }
                    }
                }
            }
            JOINT RightShoulder
            {
                OFFSET -3.474926 18.396038 -0.314103
                CHANNELS 3 Zrotation Xrotation Yrotation
                JOINT RightArm
                {
                    OFFSET -10.880760 0.000000 0.000000
                    CHANNELS 3 Zrotation Xrotation Yrotation
                    JOINT RightForeArm
                    {
                        OFFSET -27.185530 0.000000 0.000000
                        CHANNELS 3 Zrotation Xrotation Yrotation
                        JOINT RightHand
                        {
                            OFFSET -27.825975 0.000000 0.000000
                            CHANNELS 3 Zrotation Xrotation Yrotation
                            End Site
                            {
                                OFFSET -13.236923 0.000000 0.000000
                            }
                        }
                    }
                }
            }
        }
    }
    JOINT LeftUpLeg
    {
        OFFSET 8.824615 0.000000 0.000000
        CHANNELS 3 Zrotation Xrotation Yrotation
        JOINT LeftLeg
        {
            OFFSET -0.000000 -35.111282 0.000000
            CHANNELS 3 Zrotation Xrotation Yrotation
            JOINT LeftFoot
            {
                OFFSET -0.000000 -42.324711 0.000000
                CHANNELS 3 Zrotation Xrotation Yrotation
                JOINT LeftToeBase
                {
                    OFFSET -0.000000 -5.735999 13.236923
                    CHANNELS 3 Zrotation Xrotation Yrotation
                    End Site
                    {
                        OFFSET -0.000000 0.000000 3.529846
                    }
                }
            }
        }
    }
    JOINT RightUpLeg
    {
        OFFSET -8.824615 0.000000 0.000000
        CHANNELS 3 Zrotation Xrotation Yrotation
        JOINT RightLeg
        {
            OFFSET -0.000000 -35.111282 0.000000
            CHANNELS 3 Zrotation Xrotation Yrotation
            JOINT RightFoot
            {
                OFFSET -0.000000 -42.324711 0.000000
                CHANNELS 3 Zrotation Xrotation Yrotation
                JOINT RightToeBase
                {
                    OFFSET -0.000000 -5.735999 13.236923
                    CHANNELS 3 Zrotation Xrotation Yrotation
                    End Site
                    {
                        OFFSET -0.000000 0.000000 3.529846
                    }
                }
            }
        }
    }
}
MOTION
Frames:    11
Frame Time:    0.008333
-5.246136    84.893562    101.584534    -1.682039    -3.909940    -167.531403    -2.699459    -13.342819    0.459901    0.005284    11.121957    0.775283    3.336878    5.772015    1.103407    -6.552232    -13.509915    -0.860769    1.274710    18.431253    -3.451782    -46.338013    43.423969    -39.063320    1.703950    -3.946961    -15.228546    13.682980    -3.597632    1.019279    10.588282    22.444744    -7.854401    38.552402    45.967880    36.263458    -4.036160    -9.272440    20.998369    -14.808580    -8.210409    -2.509827    4.676558    -4.111109    -9.499804    -0.286593    6.814379    0.229168    -8.348986    -5.348934    -10.048649    0.297300    -0.593221    -0.329901    -7.081294    5.611002    -10.521769    1.211760    1.466712    -6.914780    3.998402    -5.301409    -12.925319    -2.063782    -0.152802    2.232569    
-5.234672    84.893288    101.580978    -1.664568    -3.932487    -167.654526    -2.687569    -13.364660    0.455456    -0.017654    11.164532    0.772124    3.397059    5.706570    1.139684    -6.659505    -13.522461    -0.859286    1.221858    18.504890    -3.395342    -46.992935    42.765697    -38.532970    1.747358    -4.511338    -15.228052    13.165035    -4.132679    1.266408    10.658723    22.433672    -7.927891    38.588001    45.963848    36.255962    -4.002404    -9.482656    20.980122    -14.873200    -8.423355    -2.535423    4.705579    -4.089644    -9.410567    -0.284169    6.775239    0.285781    -8.354851    -5.353447    -10.061463    0.299598    -0.583198    -0.332444    -7.080111    5.550261    -10.462749    1.221044    1.478534    -6.891169    3.991285    -5.282324    -12.886107    -2.056684    -0.161323    2.224917    
-5.223238    84.893028    101.577614    -1.647411    -3.955214    -167.779419    -2.674690    -13.386477    0.451166    -0.041470    11.206630    0.769178    3.457104    5.641156    1.177053    -6.767948    -13.534760    -0.856909    1.166955    18.578035    -3.338726    -47.634800    42.092930    -38.014294    1.787968    -5.105089    -15.242057    12.646667    -4.696885    1.538045    10.729555    22.422230    -8.001705    38.622383    45.956406    36.247730    -3.968540    -9.691467    20.963299    -14.938789    -8.635034    -2.559256    4.734317    -4.067738    -9.320834    -0.281853    6.735658    0.343564    -8.360798    -5.357614    -10.074058    0.301917    -0.573253    -0.335012    -7.079359    5.488891    -10.403193    1.230354    1.490399    -6.866738    3.984289    -5.263033    -12.846503    -2.049748    -0.169431    2.217439    
-5.211903    84.892807    101.574615    -1.630873    -3.977989    -167.907043    -2.660003    -13.407714    0.447262    -0.066717    11.247287    0.766547    3.516222    5.576508    1.216319    -6.877811    -13.547061    -0.852995    1.109241    18.649994    -3.282478    -48.258438    41.408005    -37.507576    1.823558    -5.743399    -15.282269    12.129373    -5.304819    1.844305    10.800112    22.410484    -8.075656    38.654766    45.942566    36.239174    -3.934574    -9.894300    20.948982    -15.005073    -8.840994    -2.580109    4.762376    -4.045094    -9.230644    -0.279460    6.695646    0.402976    -8.367169    -5.361298    -10.086030    0.304048    -0.563576    -0.337371    -7.079389    5.426680    -10.342943    1.239480    1.502515    -6.840887    3.977618    -5.243704    -12.806391    -2.043149    -0.177300    2.210325    
-5.200551    84.892609    101.572052    -1.614984    -4.000929    -168.039734    -2.642554    -13.427871    0.443867    -0.094351    11.286019    0.764351    3.574689    5.511631    1.258610    -6.990633    -13.558874    -0.846676    1.046535    18.720648    -3.226391    -48.866936    40.704475    -37.005173    1.852582    -6.450591    -15.361759    11.607934    -5.979961    2.198879    10.871032    22.398233    -8.150587    38.683971    45.921124    36.230663    -3.901142    -10.088529    20.938520    -15.070460    -9.038474    -2.598049    4.789849    -4.021138    -9.139244    -0.276994    6.654650    0.465819    -8.373949    -5.364377    -10.097516    0.305816    -0.553935    -0.339326    -7.080526    5.362926    -10.280841    1.248640    1.514840    -6.812802    3.971034    -5.224141    -12.765507    -2.037036    -0.184208    2.203732    
-5.189113    84.892426    101.570068    -1.599846    -4.023940    -168.178726    -2.621840    -13.446689    0.441192    -0.124793    11.322455    0.762728    3.632646    5.446949    1.304727    -7.107360    -13.570634    -0.837452    0.978599    18.790409    -3.171147    -49.457989    39.981495    -36.505367    1.873401    -7.248309    -15.494962    11.081507    -6.743606    2.613747    10.941243    22.385813    -8.226386    38.708946    45.892109    36.223278    -3.869644    -10.268628    20.933764    -15.132825    -9.221410    -2.615001    4.816890    -3.995535    -9.046840    -0.274794    6.612502    0.533100    -8.381262    -5.366735    -10.108105    0.307105    -0.544545    -0.340751    -7.082918    5.297240    -10.216496    1.257702    1.527600    -6.781458    3.964445    -5.204433    -12.724128    -2.031517    -0.190186    2.197780    
-5.177564    84.892250    101.568748    -1.585576    -4.046693    -168.324188    -2.597405    -13.463358    0.439438    -0.158797    11.355763    0.761888    3.690836    5.382786    1.355126    -7.228507    -13.582067    -0.824951    0.905760    18.858631    -3.117709    -50.026558    39.242943    -36.008514    1.884120    -8.151321    -15.695356    10.554819    -7.610763    3.095419    11.009813    22.373388    -8.301658    38.728386    45.857498    36.217384    -3.842202    -10.428274    20.936701    -15.191254    -9.382675    -2.633710    4.843337    -3.968138    -8.953957    -0.272739    6.569539    0.605091    -8.389386    -5.368373    -10.117627    0.307771    -0.535420    -0.341484    -7.086652    5.229910    -10.149676    1.266808    1.540804    -6.746627    3.957581    -5.184721    -12.682584    -2.026756    -0.194800    2.192643    
-5.165635    84.892052    101.568176    -1.571921    -4.069216    -168.478531    -2.568795    -13.477398    0.438685    -0.196771    11.385956    0.761960    3.750103    5.318139    1.410936    -7.355808    -13.593190    -0.808625    0.826984    18.926098    -3.066639    -50.576752    38.480572    -35.507023    1.882910    -9.190425    -15.981739    10.027517    -8.612103    3.658082    11.075618    22.361029    -8.375916    38.741997    45.819420    36.213463    -3.820005    -10.565166    20.949230    -15.247531    -9.519309    -2.656726    4.869668    -3.938570    -8.859608    -0.270835    6.525590    0.683670    -8.398636    -5.369312    -10.126534    0.307716    -0.526595    -0.341418    -7.091569    5.159947    -10.079512    1.275912    1.554897    -6.707165    3.950218    -5.164807    -12.640438    -2.022723    -0.197829    2.188289    
-5.153325    84.891808    101.568413    -1.558964    -4.091016    -168.640442    -2.536435    -13.487973    0.439100    -0.238064    11.412230    0.762933    3.810320    5.253374    1.472036    -7.488552    -13.603375    -0.788342    0.742829    18.991743    -3.019811    -51.100452    37.703976    -35.004490    1.867569    -10.370378    -16.366781    9.517337    -9.753263    4.300496    11.136128    22.348879    -8.446434    38.749878    45.781521    36.210960    -3.804193    -10.676487    20.972715    -15.302436    -9.628092    -2.684653    4.895785    -3.907140    -8.765440    -0.269120    6.481746    0.767751    -8.409269    -5.370003    -10.133728    0.307089    -0.518330    -0.340717    -7.097536    5.088172    -10.006550    1.285131    1.569832    -6.662964    3.942084    -5.144990    -12.598460    -2.019426    -0.199811    2.184729    
-5.140411    84.891487    101.569473    -1.546520    -4.111968    -168.811310    -2.500525    -13.494733    0.440614    -0.282226    11.434915    0.764777    3.871449    5.187418    1.539143    -7.627031    -13.612331    -0.763464    0.652409    19.055674    -2.977690    -51.598694    36.910343    -34.496567    1.835227    -11.711033    -16.869808    9.040686    -11.054194    5.029209    11.189649    22.336893    -8.512266    38.751343    45.747746    36.210663    -3.795207    -10.764275    21.008270    -15.357021    -9.710969    -2.717451    4.921883    -3.873794    -8.671132    -0.267394    6.438495    0.858498    -8.421661    -5.370754    -10.139499    0.306185    -0.510633    -0.339709    -7.104391    5.014222    -9.930441    1.294580    1.585831    -6.613119    3.933079    -5.125198    -12.556559    -2.016866    -0.200462    2.181961    
-5.126665    84.891090    101.571510    -1.534396    -4.132033    -168.992203    -2.461434    -13.496799    0.443196    -0.328587    11.453603    0.767464    3.933558    5.119524    1.612865    -7.771571    -13.619999    -0.733419    0.555069    19.117596    -2.941600    -52.071865    36.098301    -33.979767    1.782567    -13.227185    -17.512247    8.624249    -12.529242    5.848647    11.235295    22.325130    -8.572589    38.744545    45.721813    36.213406    -3.792714    -10.831381    21.056818    -15.411766    -9.770887    -2.754290    4.948113    -3.838968    -8.576968    -0.265509    6.396908    0.955924    -8.435667    -5.372354    -10.142631    0.305234    -0.503213    -0.338650    -7.111989    4.937443    -9.851065    1.304380    1.603332    -6.557293    3.923004    -5.105314    -12.514115    -2.015022    -0.200316    2.179966    
